<?xml version="1.0" standalone="no"?>
<svg xmlns:xlink="http://www.w3.org/1999/xlink" id="wave" style="transform:rotate(180deg); transition: 0.3s" viewBox="0 0 1440 280" version="1.1" xmlns="http://www.w3.org/2000/svg"><defs><linearGradient id="sw-gradient-0" x1="0" x2="0" y1="1" y2="0"><stop stop-color="rgba(205.338, 0, 45.647, 1)" offset="0%"/><stop stop-color="rgba(34.579, 5.771, 5.771, 1)" offset="100%"/></linearGradient></defs><path style="transform:translate(0, 0px); opacity:1" fill="url(#sw-gradient-0)" d="M0,84L120,98C240,112,480,140,720,140C960,140,1200,112,1440,116.7C1680,121,1920,159,2160,177.3C2400,196,2640,196,2880,163.3C3120,131,3360,65,3600,56C3840,47,4080,93,4320,130.7C4560,168,4800,196,5040,191.3C5280,187,5520,149,5760,121.3C6000,93,6240,75,6480,84C6720,93,6960,131,7200,130.7C7440,131,7680,93,7920,65.3C8160,37,8400,19,8640,32.7C8880,47,9120,93,9360,121.3C9600,149,9840,159,10080,158.7C10320,159,10560,149,10800,154C11040,159,11280,177,11520,154C11760,131,12000,65,12240,32.7C12480,0,12720,0,12960,14C13200,28,13440,56,13680,70C13920,84,14160,84,14400,88.7C14640,93,14880,103,15120,121.3C15360,140,15600,168,15840,154C16080,140,16320,84,16560,74.7C16800,65,17040,103,17160,121.3L17280,140L17280,280L17160,280C17040,280,16800,280,16560,280C16320,280,16080,280,15840,280C15600,280,15360,280,15120,280C14880,280,14640,280,14400,280C14160,280,13920,280,13680,280C13440,280,13200,280,12960,280C12720,280,12480,280,12240,280C12000,280,11760,280,11520,280C11280,280,11040,280,10800,280C10560,280,10320,280,10080,280C9840,280,9600,280,9360,280C9120,280,8880,280,8640,280C8400,280,8160,280,7920,280C7680,280,7440,280,7200,280C6960,280,6720,280,6480,280C6240,280,6000,280,5760,280C5520,280,5280,280,5040,280C4800,280,4560,280,4320,280C4080,280,3840,280,3600,280C3360,280,3120,280,2880,280C2640,280,2400,280,2160,280C1920,280,1680,280,1440,280C1200,280,960,280,720,280C480,280,240,280,120,280L0,280Z"/></svg>