<?xml version="1.0" standalone="no"?>
<svg xmlns:xlink="http://www.w3.org/1999/xlink" id="wave" style="transform:rotate(180deg); transition: 0.3s" viewBox="0 0 1440 280" version="1.1" xmlns="http://www.w3.org/2000/svg"><defs><linearGradient id="sw-gradient-0" x1="0" x2="0" y1="1" y2="0"><stop stop-color="rgba(205.338, 0, 45.647, 1)" offset="0%"/><stop stop-color="rgba(34.579, 5.771, 5.771, 1)" offset="100%"/></linearGradient></defs><path style="transform:translate(0, 0px); opacity:1" fill="url(#sw-gradient-0)" d="M0,112L120,93.3C240,75,480,37,720,32.7C960,28,1200,56,1440,98C1680,140,1920,196,2160,182C2400,168,2640,84,2880,56C3120,28,3360,56,3600,98C3840,140,4080,196,4320,186.7C4560,177,4800,103,5040,84C5280,65,5520,103,5760,112C6000,121,6240,103,6480,98C6720,93,6960,103,7200,102.7C7440,103,7680,93,7920,74.7C8160,56,8400,28,8640,42C8880,56,9120,112,9360,112C9600,112,9840,56,10080,37.3C10320,19,10560,37,10800,70C11040,103,11280,149,11520,172.7C11760,196,12000,196,12240,200.7C12480,205,12720,215,12960,219.3C13200,224,13440,224,13680,186.7C13920,149,14160,75,14400,74.7C14640,75,14880,149,15120,182C15360,215,15600,205,15840,177.3C16080,149,16320,103,16560,107.3C16800,112,17040,168,17160,196L17280,224L17280,280L17160,280C17040,280,16800,280,16560,280C16320,280,16080,280,15840,280C15600,280,15360,280,15120,280C14880,280,14640,280,14400,280C14160,280,13920,280,13680,280C13440,280,13200,280,12960,280C12720,280,12480,280,12240,280C12000,280,11760,280,11520,280C11280,280,11040,280,10800,280C10560,280,10320,280,10080,280C9840,280,9600,280,9360,280C9120,280,8880,280,8640,280C8400,280,8160,280,7920,280C7680,280,7440,280,7200,280C6960,280,6720,280,6480,280C6240,280,6000,280,5760,280C5520,280,5280,280,5040,280C4800,280,4560,280,4320,280C4080,280,3840,280,3600,280C3360,280,3120,280,2880,280C2640,280,2400,280,2160,280C1920,280,1680,280,1440,280C1200,280,960,280,720,280C480,280,240,280,120,280L0,280Z"/></svg>