<?xml version="1.0" standalone="no"?>
<svg xmlns:xlink="http://www.w3.org/1999/xlink" id="wave" style="transform:rotate(0deg); transition: 0.3s" viewBox="0 0 1440 300" version="1.1" xmlns="http://www.w3.org/2000/svg"><defs><linearGradient id="sw-gradient-0" x1="0" x2="0" y1="1" y2="0"><stop stop-color="rgba(205.338, 0, 45.647, 1)" offset="0%"/><stop stop-color="rgba(34.579, 5.771, 5.771, 1)" offset="100%"/></linearGradient></defs><path style="transform:translate(0, 0px); opacity:1" fill="url(#sw-gradient-0)" d="M0,150L80,135C160,120,320,90,480,70C640,50,800,40,960,35C1120,30,1280,30,1440,70C1600,110,1760,190,1920,230C2080,270,2240,270,2400,235C2560,200,2720,130,2880,95C3040,60,3200,60,3360,90C3520,120,3680,180,3840,195C4000,210,4160,180,4320,165C4480,150,4640,150,4800,145C4960,140,5120,130,5280,115C5440,100,5600,80,5760,90C5920,100,6080,140,6240,145C6400,150,6560,120,6720,130C6880,140,7040,190,7200,190C7360,190,7520,140,7680,115C7840,90,8000,90,8160,115C8320,140,8480,190,8640,185C8800,180,8960,120,9120,115C9280,110,9440,160,9600,175C9760,190,9920,170,10080,150C10240,130,10400,110,10560,105C10720,100,10880,110,11040,115C11200,120,11360,120,11440,120L11520,120L11520,300L11440,300C11360,300,11200,300,11040,300C10880,300,10720,300,10560,300C10400,300,10240,300,10080,300C9920,300,9760,300,9600,300C9440,300,9280,300,9120,300C8960,300,8800,300,8640,300C8480,300,8320,300,8160,300C8000,300,7840,300,7680,300C7520,300,7360,300,7200,300C7040,300,6880,300,6720,300C6560,300,6400,300,6240,300C6080,300,5920,300,5760,300C5600,300,5440,300,5280,300C5120,300,4960,300,4800,300C4640,300,4480,300,4320,300C4160,300,4000,300,3840,300C3680,300,3520,300,3360,300C3200,300,3040,300,2880,300C2720,300,2560,300,2400,300C2240,300,2080,300,1920,300C1760,300,1600,300,1440,300C1280,300,1120,300,960,300C800,300,640,300,480,300C320,300,160,300,80,300L0,300Z"/></svg>